<?xml version="1.0" encoding="UTF-8"?>
<!DOCTYPE svg PUBLIC "-//W3C//DTD SVG 1.1//EN" "http://www.w3.org/Graphics/SVG/1.1/DTD/svg11.dtd">
<!-- Creator: CorelDRAW 2019 (64-Bit) -->
<svg xmlns="http://www.w3.org/2000/svg" xml:space="preserve" width="1in" height="1in" version="1.1" style="shape-rendering:geometricPrecision; text-rendering:geometricPrecision; image-rendering:optimizeQuality; fill-rule:evenodd; clip-rule:evenodd"
viewBox="0 0 16.75 16.75"
 xmlns:xlink="http://www.w3.org/1999/xlink"
 xmlns:xodm="http://www.corel.com/coreldraw/odm/2003">
 <defs>
  <style type="text/css">
   <![CDATA[
    .fil0 {fill:black}
   ]]>
  </style>
 </defs>
 <g id="Layer_x0020_1">
  <metadata id="CorelCorpID_0Corel-Layer"/>
  <g id="_1746316780160">
   <path class="fil0" d="M-0 1.28l0 12.79c0,0.53 0.45,1.02 0.84,1.19 0.23,0.1 0.52,0.18 0.76,0.26 0.49,0.16 3.55,1.24 3.86,1.24 0.52,0 0.83,-0.08 1.19,-0.48 0.4,-0.45 0.35,-0.99 0.35,-1.61l2.19 0c0.7,0 1.38,-0.51 1.67,-0.98 0.05,-0.09 0.13,-0.25 0.18,-0.35 0.1,-0.23 0.15,-0.61 0.15,-0.93l0 -2.55c0,-0.97 -1.3,-1.08 -1.43,-0.12 -0.03,0.22 -0.01,2.36 -0.01,2.77 0,0.46 -0.28,0.75 -0.66,0.75l-2.09 0 0 -10.34c0,-0.61 -0.3,-1.17 -0.85,-1.41l-0.23 -0.1 2.98 -0c0.27,-0 0.35,-0 0.52,0.1 0.38,0.22 0.33,0.53 0.33,0.88 -0,0.39 0,0.79 0,1.18 0,0.44 -0.04,0.79 0.16,1.05 0.34,0.46 1.28,0.38 1.28,-0.56 0,-0.68 0.08,-2.15 -0.14,-2.7 -0.04,-0.11 -0.12,-0.25 -0.17,-0.35 -0.07,-0.13 -0.16,-0.21 -0.24,-0.31 -0.26,-0.33 -0.85,-0.69 -1.44,-0.69l-7.92 0c-0.33,0 -0.71,0.23 -0.88,0.4 -0.17,0.17 -0.4,0.55 -0.4,0.88z"/>
   <path class="fil0" d="M12.56 4.12l0 2.16 -2.85 0c-0.88,0 -0.84,1.41 0.03,1.41l2.81 0 0 2.13c0,0.37 0.31,0.65 0.75,0.65 0.34,0 0.68,-0.44 0.97,-0.73l2.14 -2.14c0.23,-0.23 0.32,-0.31 0.32,-0.66 0,-0.32 -0.22,-0.46 -0.38,-0.63l-1.57 -1.57c-0.35,-0.35 -0.68,-0.68 -1.03,-1.03 -0.51,-0.51 -1.2,-0.05 -1.2,0.42z"/>
  </g>
 </g>
</svg>
