
<svg xmlns="http://www.w3.org/2000/svg" xml:space="preserve" width="10.667in" height="8in" version="1.1" style="shape-rendering:geometricPrecision; text-rendering:geometricPrecision; image-rendering:optimizeQuality; fill-rule:evenodd; clip-rule:evenodd"
viewBox="0 0 10667 8000"
 xmlns:xlink="http://www.w3.org/1999/xlink"
 xmlns:xodm="http://www.corel.com/coreldraw/odm/2003">
 <defs>
  <style type="text/css">
   <![CDATA[
    .str0 {stroke:#4482B6;stroke-width:55.56;stroke-miterlimit:10}
    .fil9 {fill:none}
    .fil7 {fill:none;fill-rule:nonzero}
    .fil0 {fill:#38B6FF}
    .fil1 {fill:#0A3359;fill-rule:nonzero}
    .fil4 {fill:#0E3F66;fill-rule:nonzero}
    .fil8 {fill:#4482B6;fill-rule:nonzero}
    .fil3 {fill:#0E3F66;fill-rule:nonzero;fill-opacity:0.200000}
    .fil2 {fill:#242A3A;fill-rule:nonzero;fill-opacity:0.200000}
    .fil6 {fill:#00B1D8;fill-rule:nonzero;fill-opacity:0.501961}
    .fil5 {fill:#4482B6;fill-rule:nonzero;fill-opacity:0.501961}
   ]]>
  </style>
   <clipPath id="id0">
    <path d="M-0 0l10667 0 0 8000 -10667 0 0 -8000z"/>
   </clipPath>
 </defs>
 <g id="Layer_x0020_1">
  <metadata id="CorelCorpID_0Corel-Layer"/>
  <polygon class="fil0" points="-0,0 10667,0 10667,8000 -0,8000 "/>
  <g style="clip-path:url(#id0)">
   <g id="_1744172039120">
    <g>
     <g>
      <polygon id="1" class="fil1" points="11328.13,0.02 11328.13,8000 -671.85,8000 -671.85,0.02 "/>
     </g>
     <g>
      <g>
       <g>
        <path class="fil2" d="M6264.89 7999.99l-6926.02 0 0 -3444.04c199.57,-42.65 373.47,9.74 394.52,306.2 52.06,732.05 -536.05,1920.22 806.12,1517.96 1342.07,-402.28 1393.61,-337.22 1807.3,623.1 413.59,960.22 911.3,956.87 1563.1,407.41 652.02,-549.35 915.91,-908.05 1868.27,123.72 166.04,179.87 329.04,336.59 486.71,465.65z"/>
       </g>
       <path class="fil3" d="M2191.14 7999.99l-2852.27 0 0 -1391.09c142.79,282.96 432.55,504.73 1017.31,336.17 865.52,-249.43 1286.65,578.16 1834.96,1054.92z"/>
      </g>
      <g>
       <g>
        <path class="fil2" d="M4412.84 0l6926.02 0 0 3444.05c-199.56,42.64 -373.46,-9.74 -394.52,-306.21 -52.07,-732.06 536.05,-1920.23 -806.12,-1517.95 -1342.06,402.27 -1393.6,337.22 -1807.3,-623.11 -413.59,-960.22 -911.3,-956.86 -1563.1,-407.4 -652.02,549.35 -915.91,908.05 -1868.26,-123.72 -166.04,-179.87 -329.05,-336.59 -486.71,-465.65z"/>
       </g>
       <path class="fil4" d="M8486.59 0l2852.26 0 0 1391.09c-142.78,-282.96 -432.55,-504.73 -1017.31,-336.17 -865.52,249.43 -1286.65,-578.17 -1834.95,-1054.92z"/>
      </g>
     </g>
     <g>
      <path class="fil5" d="M11328.13 3477.46l-536.48 632.31c-7.2,-5.12 -15.84,-8.16 -25.44,-8.16 -24.48,0 -44.31,20 -44.31,44.48 0,4.32 0.8,8.48 2.08,12.65l-835.68 334.24c-8,-11.69 -21.44,-19.36 -36.48,-19.36 -24.48,0 -44.32,20 -44.32,44.48 0,16.64 9.28,31.2 23.04,38.72l-512.64 1360.64c-3.85,-0.96 -7.68,-1.76 -11.85,-1.76 -23.84,0 -43.36,19.05 -44.16,42.88l-897.28 50.89c-3.2,-21.28 -21.44,-37.76 -43.68,-37.76 -24.48,0 -44.31,19.84 -44.31,44.32 0,14.73 7.2,27.68 18.4,35.85l-578.4 971.03c-5.76,-2.72 -12.16,-4.48 -19.04,-4.48 -24.49,0 -44.32,20 -44.32,44.48 0,2.72 0.32,5.44 0.8,8l-1344 377.28c-6.4,-16.64 -22.4,-28.48 -41.28,-28.48 -24.48,0 -44.32,19.84 -44.32,44.32 0,6.72 1.6,13.12 4.32,18.73l-885.28 517.27 16 0 873.28 -510.4c8,11.36 21.12,18.72 36,18.72 12.31,0 23.36,-4.96 31.36,-13.12l608.96 504.8 12.8 0 -273.76 -226.88 -342.88 -284c4.96,-7.2 7.84,-15.84 7.84,-25.12 0,-2.72 -0.32,-5.44 -0.8,-8.16l1344 -377.28c2.24,6.08 5.76,11.52 10.24,15.84l-741.12 905.6 10.4 0 736.96 -900.48c7.04,4.8 15.68,7.68 24.81,7.68 12.48,0 23.68,-5.12 31.68,-13.44l564.48 458.56 550.88 447.68 12.8 0 -1123.04 -912.48c4.8,-7.04 7.52,-15.52 7.52,-24.64 0,-3.68 -0.48,-7.04 -1.28,-10.4l1645.12 -559.68c4.31,9.6 12,17.28 21.44,21.92l-285.76 773.76 -262.71 711.52 25.6 0 1741.11 -868.16c8,11.84 21.44,19.68 36.8,19.68 8.16,0 15.84,-2.4 22.4,-6.24l587.52 778.88 56 74.24 0 -13.28 -637.12 -844.48c9.44,-8.16 15.68,-20 15.68,-33.44 0,-5.76 -1.28,-11.2 -3.2,-16.15l556.32 -306.24 68.31 -37.6 0 -9.12 -628.32 345.76c-5.12,-8.31 -12.8,-14.72 -22.08,-18.07l650.4 -2492.64 0 -31.84 -291.68 1117.76 -366.4 1404.48c-2.56,-0.32 -5.12,-0.64 -7.84,-0.64 -2.4,0 -4.64,0.32 -7.04,0.64l-311.04 -1267.2 -24.8 -100.8c17.44,-5.92 30.07,-22.24 30.07,-41.76 0,-11.53 -4.63,-21.93 -11.83,-29.92l990.56 -1093.11 0 -11.69 -741.44 818.08 -255.04 281.44c-7.52,-5.6 -16.64,-9.12 -26.72,-9.12 -4.32,0 -8.48,0.8 -12.48,2.08l-370.24 -933.28 -48.48 -121.92c13.28,-7.68 22.4,-21.91 22.4,-38.24 0,-0.8 -0.16,-1.44 -0.16,-2.24l1432.15 0 0 -16.48 -522.72 -333.12c3.2,-6.08 5.12,-12.8 5.12,-20.16 0,-12.16 -4.8,-23.04 -12.64,-31.2l530.24 -624.95 0 -12.48zm-1944.96 3007.67l0 0 -1645.12 559.68c-3.2,-7.2 -8.15,-13.28 -14.56,-17.76l578.41 -971.2c5.75,2.72 12.15,4.48 19.03,4.48 16.96,0 31.68,-9.76 39.04,-23.84l761.43 316 262.72 109.12c-1.28,4.17 -2.24,8.48 -2.24,13.13 0,3.68 0.48,7.04 1.28,10.39zm4 -30.88l0 0 -1024.16 -425.11c1.28,-3.68 1.92,-7.52 2.07,-11.68l897.29 -50.89c3.2,21.44 21.44,37.92 43.67,37.92 2.08,0 4.17,-0.31 6.25,-0.64l100 428.96c-10.88,3.68 -19.84,11.36 -25.12,21.44zm-519.68 1545.12l0 0 547.2 -1481.92c3.68,0.96 7.52,1.6 11.52,1.6 15.84,0 29.6,-8.16 37.44,-20.64l1156.96 593.76c-1.6,4.8 -2.72,9.76 -2.72,15.04 0,6.24 1.44,12.32 3.68,17.6l-1754.08 874.56zm1756.64 -914.4l0 0 -1122.24 -575.84 -34.56 -17.76c2.07,-5.12 3.2,-10.72 3.2,-16.63 0,-24.49 -19.84,-44.33 -44.32,-44.33 -2.07,0 -4,0.32 -6.07,0.65l-97.93 -419.84 -2.24 -9.28c6.56,-2.08 12.48,-5.6 17.28,-10.24l517.6 438.56 770.4 652.64c-0.48,0.65 -0.8,1.44 -1.12,2.09zm-319.2 -1386.88l0 0c2.4,0 4.48,-0.32 6.72,-0.64l22.87 93.76 312.96 1274.4c-6.72,2.24 -12.48,6.08 -17.28,11.04l-369.44 -312.96 -918.4 -778.07c5.13,-7.36 8.17,-16 8.17,-25.44 0,-3.2 -0.48,-6.24 -0.96,-9.12l914.4 -280.48c6.56,16.17 22.56,27.53 40.96,27.53zm-19.84 -83.68l0 0c-14.4,7.36 -24.48,22.08 -24.48,39.36 0,3.2 0.32,6.24 0.96,9.11l-466.24 143.04 -448.16 137.44c-4.16,-10.24 -12,-18.24 -21.76,-23.04l512.48 -1360.31c4.48,1.44 8.96,2.4 13.92,2.4 5.12,0 10.08,-1.12 14.72,-2.72l418.56 1054.72zm516.17 -1441.28l0 0 524.96 334.72 -1431.36 0c-0.64,-2.72 -1.59,-5.44 -2.72,-7.84l834.72 -333.92c7.36,14.4 22.08,24.32 39.36,24.32 14.24,0 26.88,-6.88 35.05,-17.28z"/>
      <path class="fil5" d="M-671.85 4522.56l536.48 -632.31c7.2,5.12 15.84,8.16 25.44,8.16 24.48,0 44.31,-20 44.31,-44.48 0,-4.31 -0.8,-8.48 -2.07,-12.64l835.68 -334.24c8,11.69 21.44,19.36 36.48,19.36 24.48,0 44.32,-20 44.32,-44.48 0,-16.65 -9.28,-31.2 -23.04,-38.72l512.64 -1360.64c3.84,0.96 7.69,1.76 11.84,1.76 23.84,0 43.36,-19.04 44.16,-42.88l897.28 -50.89c3.2,21.28 21.44,37.76 43.68,37.76 24.48,0 44.32,-19.84 44.32,-44.32 0,-14.72 -7.2,-27.68 -18.4,-35.84l578.4 -971.04c5.76,2.72 12.16,4.48 19.04,4.48 24.48,0 44.32,-20 44.32,-44.48 0,-2.72 -0.32,-5.44 -0.8,-8l1344 -377.28c6.4,16.64 22.4,28.48 41.28,28.48 24.48,0 44.31,-19.84 44.31,-44.32 0,-6.72 -1.59,-13.13 -4.31,-18.72l885.28 -517.28 -16 0 -873.28 510.4c-8,-11.36 -21.12,-18.72 -36,-18.72 -12.32,0 -23.36,4.96 -31.36,13.12l-608.95 -504.8 -12.81 0 273.76 226.88 342.88 284c-4.96,7.2 -7.84,15.84 -7.84,25.12 0,2.72 0.31,5.44 0.8,8.16l-1344 377.28c-2.24,-6.08 -5.76,-11.52 -10.24,-15.84l741.12 -905.6 -10.4 0 -736.96 900.48c-7.04,-4.8 -15.68,-7.68 -24.8,-7.68 -12.48,0 -23.68,5.12 -31.68,13.44l-564.48 -458.56 -550.88 -447.68 -12.8 0 1123.04 912.48c-4.8,7.04 -7.52,15.52 -7.52,24.64 0,3.68 0.48,7.04 1.28,10.4l-1645.11 559.68c-4.32,-9.6 -12,-17.29 -21.44,-21.93l285.76 -773.76 262.72 -711.52 -25.6 0 -1741.11 868.16c-8,-11.84 -21.44,-19.68 -36.81,-19.68 -8.16,0 -15.83,2.4 -22.4,6.24l-587.52 -778.88 -56 -74.24 0 13.28 637.12 844.48c-9.44,8.16 -15.68,20 -15.68,33.44 0,5.76 1.28,11.2 3.2,16.15l-556.31 306.25 -68.32 37.6 0 9.11 628.32 -345.75c5.12,8.32 12.8,14.72 22.08,18.08l-650.4 2492.63 0 31.84 291.68 -1117.76 366.41 -1404.47c2.56,0.31 5.11,0.64 7.83,0.64 2.4,0 4.64,-0.32 7.04,-0.64l311.04 1267.2 24.8 100.8c-17.44,5.92 -30.07,22.24 -30.07,41.76 0,11.52 4.64,21.92 11.83,29.92l-990.56 1093.11 0 11.68 741.44 -818.07 255.04 -281.44c7.52,5.59 16.64,9.11 26.72,9.11 4.32,0 8.48,-0.8 12.48,-2.07l370.24 933.28 48.48 121.92c-13.28,7.68 -22.4,21.91 -22.4,38.24 0,0.8 0.16,1.44 0.16,2.24l-1432.16 0 0 16.48 522.72 333.12c-3.2,6.08 -5.12,12.8 -5.12,20.15 0,12.17 4.8,23.04 12.63,31.2l-530.24 624.96 0 12.48zm1944.96 -3007.67l0 0 1645.11 -559.68c3.2,7.2 8.16,13.28 14.56,17.76l-578.4 971.2c-5.76,-2.72 -12.15,-4.48 -19.04,-4.48 -16.96,0 -31.68,9.76 -39.04,23.84l-761.44 -316 -262.72 -109.12c1.28,-4.16 2.24,-8.48 2.24,-13.12 0,-3.68 -0.48,-7.04 -1.27,-10.39zm-4 30.88l0 0 1024.16 425.11c-1.28,3.69 -1.93,7.52 -2.08,11.69l-897.28 50.88c-3.2,-21.44 -21.44,-37.93 -43.68,-37.93 -2.08,0 -4.16,0.32 -6.24,0.65l-100 -428.96c10.88,-3.68 19.83,-11.36 25.12,-21.44zm519.68 -1545.12l0 0 -547.2 1481.92c-3.68,-0.96 -7.52,-1.61 -11.52,-1.61 -15.84,0 -29.6,8.17 -37.44,20.65l-1156.96 -593.76c1.6,-4.8 2.72,-9.76 2.72,-15.04 0,-6.24 -1.44,-12.32 -3.69,-17.6l1754.08 -874.56zm-1756.64 914.4l0 0 1122.24 575.84 34.56 17.76c-2.08,5.12 -3.2,10.72 -3.2,16.63 0,24.49 19.84,44.33 44.32,44.33 2.08,0 4,-0.32 6.08,-0.65l97.93 419.85 2.23 9.28c-6.56,2.07 -12.48,5.6 -17.28,10.24l-517.59 -438.56 -770.4 -652.64c0.48,-0.64 0.8,-1.44 1.12,-2.09zm319.2 1386.88l0 0c-2.4,0 -4.48,0.32 -6.72,0.64l-22.88 -93.76 -312.96 -1274.4c6.72,-2.24 12.48,-6.08 17.28,-11.04l369.44 312.96 918.4 778.08c-5.12,7.36 -8.16,16 -8.16,25.44 0,3.2 0.48,6.24 0.96,9.12l-914.4 280.48c-6.56,-16.17 -22.56,-27.53 -40.96,-27.53zm19.84 83.68l0 0c14.4,-7.36 24.48,-22.08 24.48,-39.36 0,-3.2 -0.31,-6.24 -0.96,-9.12l466.24 -143.04 448.16 -137.44c4.16,10.24 12,18.24 21.76,23.04l-512.48 1360.31c-4.48,-1.44 -8.96,-2.4 -13.92,-2.4 -5.12,0 -10.08,1.12 -14.72,2.72l-418.56 -1054.72zm-516.17 1441.28l0 0 -524.95 -334.72 1431.36 0c0.64,2.72 1.6,5.44 2.72,7.83l-834.72 333.92c-7.36,-14.4 -22.08,-24.32 -39.36,-24.32 -14.24,0 -26.88,6.88 -35.05,17.28z"/>
     </g>
     <g>
      <polygon class="fil4" points="7377.59,1369.76 7377.59,1002.2 7059.27,818.41 6740.94,1002.2 6740.94,1369.76 7059.27,1553.55 "/>
      <polygon class="fil4" points="2430.06,4643.11 2430.06,4275.53 2111.73,4091.75 1793.41,4275.53 1793.41,4643.11 2111.73,4826.89 "/>
      <polygon class="fil4" points="9060.19,4154.86 9060.19,3787.29 8741.87,3603.5 8423.54,3787.29 8423.54,4154.86 8741.87,4338.64 "/>
      <polygon class="fil4" points="3631.8,1605.79 3631.8,1397.44 3451.37,1293.26 3270.93,1397.44 3270.93,1605.79 3451.37,1709.96 "/>
      <polygon class="fil4" points="297.75,4469.53 297.75,4261.18 117.32,4157 -63.12,4261.18 -63.12,4469.53 117.32,4573.7 "/>
      <polygon class="fil4" points="10626.97,3137.94 10626.97,2929.6 10446.53,2825.42 10266.09,2929.6 10266.09,3137.94 10446.53,3242.12 "/>
      <polygon class="fil4" points="6846.3,6926.44 6846.3,6718.09 6665.86,6613.92 6485.43,6718.09 6485.43,6926.44 6665.86,7030.62 "/>
      <polygon class="fil4" points="3796.66,7102.07 3796.66,6734.5 3478.34,6550.71 3160.01,6734.5 3160.01,7102.07 3478.34,7285.85 "/>
     </g>
     <g>
      <polygon class="fil6" points="8003.06,5538.17 8003.06,2461.83 5338.87,923.65 2674.67,2461.83 2674.67,5538.17 5338.87,7076.34 "/>
      <g>
       <polygon class="fil7 str0" points="7803.32,5422.85 7803.32,2577.15 5338.87,1154.29 2874.41,2577.15 2874.41,5422.85 5338.87,6845.7 "/>
       <g>
        <polygon class="fil7 str0" points="9855.93,2407.06 9855.93,1458.79 9034.71,984.66 8213.48,1458.79 8213.48,2407.06 9034.71,2881.19 "/>
        <g>
         <g>
          <g>
           <path class="fil8" d="M8818.81 2348.3l-234.99 -135.68 0 -271.37 234.99 -135.68 235 135.68 0 271.37 -235 135.68zm-196.77 -157.75l0 0 196.77 113.6 196.78 -113.6 0 -227.22 -196.78 -113.61 -196.77 113.61 0 227.22z"/>
          </g>
          <g>
           <path class="fil8" d="M9250.59 2348.3l-235 -135.68 0 -271.37 235 -135.68 235.01 135.68 0 271.37 -235.01 135.68zm-196.78 -157.75l0 0 196.78 113.6 196.78 -113.6 0 -227.22 -196.78 -113.61 -196.78 113.61 0 227.22z"/>
          </g>
          <g>
           <path class="fil8" d="M9034.7 1973.2l-235 -135.68 0 -271.37 235 -135.68 235 135.68 0 271.37 -235 135.68zm-196.78 -157.75l0 0 196.78 113.6 196.78 -113.6 0 -227.22 -196.78 -113.6 -196.78 113.6 0 227.22z"/>
          </g>
         </g>
         <g>
          <polygon class="fil8" points="9053.81,1452.55 9015.59,1452.55 9015.59,1282.74 9053.81,1282.74 "/>
         </g>
         <g>
          <polygon class="fil8" points="9591.78,2318.01 9455.14,2217.21 9477.84,2186.45 9614.48,2287.25 "/>
         </g>
         <g>
          <polygon class="fil8" points="8477.63,2318.01 8454.94,2287.25 8591.58,2186.45 8614.27,2217.21 "/>
         </g>
        </g>
       </g>
       <line class="fil7 str0" x1="7803.32" y1="2577.15" x2="8250.48" y2= "2382.89" />
       <line class="fil7 str0" x1="2483.14" y1="5608.22" x2="2874.41" y2= "5422.85" />
       <g>
        <polygon class="fil7 str0" points="2483.14,6556.49 2483.14,5608.22 1661.91,5134.09 840.69,5608.22 840.69,6556.49 1661.91,7030.62 "/>
        <path class="fil8" d="M2261.3 5801.28l0 -37.21c-141.87,0 -257.53,194.62 -299.69,275.98 -42.15,-81.35 -157.8,-276 -299.7,-276 -141.89,0 -257.54,194.65 -299.69,276 -42.16,-81.36 -157.81,-275.98 -299.7,-275.98l0 37.21c54.26,0 105.72,36.7 149.52,83.89l0 394.47c-43.78,47.15 -95.23,83.8 -149.52,83.8l0 37.22c141.89,0 257.56,-194.65 299.7,-276 42.15,81.36 157.8,275.98 299.69,275.98 141.89,0 257.54,-194.62 299.69,-275.98 42.15,81.35 157.82,276 299.69,276l0 -37.22c-54.25,0 -105.7,-36.7 -149.51,-83.89l0 -394.48c43.78,-47.14 95.22,-83.8 149.51,-83.8zm-1012.04 433.79l0 0 0 -305.31c47.82,63.13 81.74,130.36 92.42,152.61 -10.67,22.26 -44.58,89.55 -92.42,152.7zm207.65 -280.21l0 0 0 254.89c-38.12,-54.95 -64.87,-108.11 -74.13,-127.4 9.25,-19.31 36,-72.5 74.13,-127.49zm37.22 303.94l0 0 0 -352.97c25.09,-30.02 53.24,-57.5 83.39,-76.76l0 506.54c-30.15,-19.28 -58.29,-46.77 -83.39,-76.8zm120.61 95.63l0 0 0 -544.15c15.4,-5.7 31.15,-9 47.17,-9 12.24,0 24.32,1.94 36.21,5.37l0 551.44c-11.89,3.43 -23.98,5.36 -36.21,5.36 -16.02,0 -31.77,-3.3 -47.17,-9.01zm120.6 -12.18l0 0 0 -519.75c29.91,16.81 58.04,42.16 83.4,70.69l0 378.42c-25.36,28.52 -53.48,53.85 -83.4,70.64zm120.61 -116.98l0 0 0 -285.72c43.96,60.15 74.98,121.72 85.1,142.81 -10.12,21.11 -41.12,82.73 -85.1,142.91zm218.62 9.71l0 0c-47.82,-63.14 -81.74,-130.36 -92.42,-152.61 10.68,-22.26 44.57,-89.55 92.42,-152.7l0 305.31z"/>
       </g>
      </g>
     </g>
    </g>
   </g>
  </g>
  <polygon class="fil9" points="-0,0 10667,0 10667,8000 -0,8000 "/>
 </g>
</svg>
